<svg width="48" height="48" viewBox="0 0 48 48" fill="none" xmlns="http://www.w3.org/2000/svg">
<rect width="48" height="48" rx="8" fill="#6F23D0"/>
<rect x="4" y="33.2" width="2" height="9" rx="1" fill="white"/>
<rect x="43.7002" y="33.0099" width="2" height="21" rx="1" transform="rotate(78.5474 43.7002 33.0099)" fill="white"/>
<rect x="4" y="34.9602" width="2" height="21" rx="1" transform="rotate(-78.55 4 34.9602)" fill="white"/>
<rect x="42" y="33.2" width="2" height="9" rx="1" fill="white"/>
<rect x="23" y="38" width="2" height="6" rx="1" fill="white"/>
<path d="M43.0126 40.1637C43.4393 40.2265 43.7729 40.5641 43.8306 40.9914V40.9914C43.9162 41.6252 43.3744 42.1661 42.7408 42.0795L38.5 41.5L36 41.5L34.8188 41.5C33.9411 41.5 33.0649 41.5725 32.1991 41.7168V41.7168C31.0697 41.9051 29.9638 42.2145 28.9007 42.6397L28 43L24.2148 44.5902C23.6242 44.8383 22.9592 44.4581 22.8735 43.8233V43.8233C22.8156 43.3948 23.0474 42.9795 23.4425 42.8039L27.5 41L28.8612 40.4555C29.6188 40.1525 30.4027 39.9195 31.2028 39.7594V39.7594C32.0655 39.5869 32.9432 39.5 33.8229 39.5L35.5 39.5L38.0314 39.5C38.3434 39.5 38.6549 39.5228 38.9635 39.5682L43.0126 40.1637Z" fill="white"/>
<path d="M24.522 42.8794C24.9371 43.0391 25.1891 43.4619 25.132 43.903V43.903C25.0512 44.5273 24.4034 44.9079 23.8187 44.6747L20 43.1515V43.1515C16.6847 42.149 13.24 41.6396 9.77642 41.6396L9.5 41.6396L5.25848 42.2412C4.62551 42.331 4.08105 41.7931 4.16313 41.1591V41.1591C4.21853 40.7311 4.55065 40.3916 4.97728 40.3268L9.02216 39.7122C9.34027 39.6639 9.66157 39.6396 9.98332 39.6396L11.3688 39.6396C13.7767 39.6396 16.1717 39.9911 18.478 40.683L20 41.1396L24.522 42.8794Z" fill="white"/>
<rect x="17" y="31" width="14" height="1.5" rx="0.75" fill="white"/>
<rect x="15" y="28" width="18" height="1.5" rx="0.75" fill="white"/>
<rect x="13" y="25" width="22" height="1.5" rx="0.75" fill="white"/>
<rect x="19" y="34" width="10" height="1.5" rx="0.75" fill="white"/>
<circle cx="24" cy="14" r="11" fill="white"/>
<circle cx="23.9999" cy="14" r="9.16667" fill="#6F23D0"/>
<rect x="22.1667" y="14" width="3.66667" height="11" rx="1.83333" fill="white"/>
<circle cx="25.8334" cy="14.4583" r="2.29167" fill="white"/>
<circle cx="22.1667" cy="14.4583" r="2.29167" fill="white"/>
</svg>
