<svg width="1200" height="630" viewBox="0 0 1200 630" fill="none" xmlns="http://www.w3.org/2000/svg"><rect width="1200" height="630" fill="#6F23D0"/><rect x="100" y="52" width="1000" height="525" rx="40" fill="#F4F4F4"/><path d="M364.7 339H332.2V330.4L340.9 326.4V280.2L332.2 276.2V267.6H364.7V276.2L356 280.2V326.4L364.7 330.4V339ZM416.544 339H401.644V263H416.544V339ZM481.713 311.6C481.713 316.133 481.079 320.167 479.813 323.7C478.613 327.233 476.846 330.233 474.513 332.7C472.246 335.1 469.479 336.933 466.213 338.2C462.946 339.4 459.246 340 455.113 340C451.313 340 447.779 339.4 444.513 338.2C441.313 336.933 438.546 335.1 436.213 332.7C433.879 330.233 432.046 327.233 430.713 323.7C429.446 320.167 428.813 316.133 428.813 311.6C428.813 305.533 429.879 300.433 432.013 296.3C434.146 292.1 437.213 288.9 441.213 286.7C445.213 284.5 449.946 283.4 455.413 283.4C460.546 283.4 465.079 284.5 469.013 286.7C472.946 288.9 476.046 292.1 478.313 296.3C480.579 300.433 481.713 305.533 481.713 311.6ZM444.013 311.6C444.013 315.2 444.379 318.233 445.113 320.7C445.913 323.1 447.146 324.933 448.813 326.2C450.479 327.4 452.646 328 455.313 328C457.979 328 460.113 327.4 461.713 326.2C463.379 324.933 464.579 323.1 465.313 320.7C466.113 318.233 466.513 315.2 466.513 311.6C466.513 308 466.113 305 465.313 302.6C464.579 300.2 463.379 298.4 461.713 297.2C460.046 296 457.879 295.4 455.213 295.4C451.279 295.4 448.413 296.767 446.613 299.5C444.879 302.167 444.013 306.2 444.013 311.6ZM505.073 339L484.273 284.4H499.873L510.373 315.5C510.773 316.7 511.107 317.967 511.373 319.3C511.707 320.633 511.94 321.933 512.073 323.2C512.273 324.467 512.407 325.633 512.473 326.7H512.873C512.94 325.567 513.073 324.367 513.273 323.1C513.473 321.833 513.707 320.567 513.973 319.3C514.307 317.967 514.673 316.7 515.073 315.5L525.573 284.4H541.173L520.373 339H505.073ZM571.507 283.4C576.574 283.4 580.907 284.367 584.507 286.3C588.174 288.233 591.007 291.033 593.007 294.7C595.007 298.367 596.007 302.867 596.007 308.2V315.4H560.807C560.94 319.6 562.174 322.9 564.507 325.3C566.907 327.7 570.207 328.9 574.407 328.9C577.94 328.9 581.14 328.567 584.007 327.9C586.874 327.167 589.84 326.067 592.907 324.6V336.1C590.24 337.433 587.407 338.4 584.407 339C581.474 339.667 577.907 340 573.707 340C568.24 340 563.407 339 559.207 337C555.007 334.933 551.707 331.833 549.307 327.7C546.907 323.567 545.707 318.367 545.707 312.1C545.707 305.7 546.774 300.4 548.907 296.2C551.107 291.933 554.14 288.733 558.007 286.6C561.874 284.467 566.374 283.4 571.507 283.4ZM571.607 294C568.74 294 566.34 294.933 564.407 296.8C562.54 298.667 561.44 301.567 561.107 305.5H582.007C582.007 303.3 581.607 301.333 580.807 299.6C580.074 297.867 578.94 296.5 577.407 295.5C575.874 294.5 573.94 294 571.607 294ZM700.066 303.2C700.066 308.533 699.432 313.4 698.166 317.8C696.899 322.2 694.966 326.033 692.366 329.3C689.766 332.5 686.466 335 682.466 336.8L699.666 356H680.266L667.166 340C666.966 340 666.766 340 666.566 340C666.432 340 666.266 340 666.066 340C660.266 340 655.199 339.133 650.866 337.4C646.599 335.6 643.066 333.1 640.266 329.9C637.532 326.633 635.466 322.733 634.066 318.2C632.732 313.667 632.066 308.633 632.066 303.1C632.066 295.7 633.266 289.267 635.666 283.8C638.132 278.333 641.866 274.1 646.866 271.1C651.932 268.033 658.366 266.5 666.166 266.5C673.899 266.5 680.266 268.033 685.266 271.1C690.266 274.1 693.966 278.367 696.366 283.9C698.832 289.367 700.066 295.8 700.066 303.2ZM647.966 303.2C647.966 308.2 648.599 312.5 649.866 316.1C651.132 319.7 653.099 322.467 655.766 324.4C658.432 326.333 661.866 327.3 666.066 327.3C670.399 327.3 673.866 326.333 676.466 324.4C679.132 322.467 681.066 319.7 682.266 316.1C683.532 312.5 684.166 308.2 684.166 303.2C684.166 295.667 682.766 289.767 679.966 285.5C677.166 281.233 672.566 279.1 666.166 279.1C661.899 279.1 658.432 280.067 655.766 282C653.099 283.933 651.132 286.7 649.866 290.3C648.599 293.9 647.966 298.2 647.966 303.2ZM728.555 284.4V339H713.655V284.4H728.555ZM721.155 263C723.355 263 725.255 263.533 726.855 264.6C728.455 265.6 729.255 267.5 729.255 270.3C729.255 273.033 728.455 274.933 726.855 276C725.255 277.067 723.355 277.6 721.155 277.6C718.889 277.6 716.955 277.067 715.355 276C713.822 274.933 713.055 273.033 713.055 270.3C713.055 267.5 713.822 265.6 715.355 264.6C716.955 263.533 718.889 263 721.155 263ZM759.024 284.4V339H744.124V284.4H759.024ZM751.624 263C753.824 263 755.724 263.533 757.324 264.6C758.924 265.6 759.724 267.5 759.724 270.3C759.724 273.033 758.924 274.933 757.324 276C755.724 277.067 753.824 277.6 751.624 277.6C749.358 277.6 747.424 277.067 745.824 276C744.291 274.933 743.524 273.033 743.524 270.3C743.524 267.5 744.291 265.6 745.824 264.6C747.424 263.533 749.358 263 751.624 263ZM797.593 328.1C799.26 328.1 800.86 327.933 802.393 327.6C803.926 327.267 805.46 326.867 806.993 326.4V337.5C805.393 338.167 803.393 338.733 800.993 339.2C798.66 339.733 796.093 340 793.293 340C790.026 340 787.093 339.467 784.493 338.4C781.96 337.333 779.926 335.5 778.393 332.9C776.926 330.233 776.193 326.567 776.193 321.9V295.6H769.093V289.3L777.293 284.3L781.593 272.8H791.093V284.4H806.393V295.6H791.093V321.9C791.093 323.967 791.693 325.533 792.893 326.6C794.093 327.6 795.66 328.1 797.593 328.1ZM840.352 283.3C847.686 283.3 853.286 284.9 857.152 288.1C861.086 291.233 863.052 296.067 863.052 302.6V339H852.652L849.752 331.6H849.352C847.819 333.533 846.219 335.133 844.552 336.4C842.952 337.667 841.086 338.567 838.952 339.1C836.886 339.7 834.319 340 831.252 340C828.052 340 825.152 339.4 822.552 338.2C820.019 336.933 818.019 335.033 816.552 332.5C815.086 329.9 814.352 326.633 814.352 322.7C814.352 316.9 816.386 312.633 820.452 309.9C824.519 307.1 830.619 305.567 838.752 305.3L848.252 305V302.6C848.252 299.733 847.486 297.633 845.952 296.3C844.486 294.967 842.419 294.3 839.752 294.3C837.086 294.3 834.486 294.7 831.952 295.5C829.419 296.233 826.886 297.167 824.352 298.3L819.452 288.2C822.386 286.667 825.619 285.467 829.152 284.6C832.752 283.733 836.486 283.3 840.352 283.3ZM842.452 313.9C837.652 314.033 834.319 314.9 832.452 316.5C830.586 318.1 829.652 320.2 829.652 322.8C829.652 325.067 830.319 326.7 831.652 327.7C832.986 328.633 834.719 329.1 836.852 329.1C840.052 329.1 842.752 328.167 844.952 326.3C847.152 324.367 848.252 321.667 848.252 318.2V313.7L842.452 313.9Z" fill="#1A1A1A"/><path d="M164.424 413H154.024V410.248L156.808 408.968V394.184L154.024 392.904V390.152H164.424V392.904L161.64 394.184V408.968L164.424 410.248V413ZM181.014 413H176.246V388.68H181.014V413ZM201.868 404.232C201.868 405.683 201.665 406.973 201.26 408.104C200.876 409.235 200.311 410.195 199.564 410.984C198.839 411.752 197.953 412.339 196.908 412.744C195.863 413.128 194.679 413.32 193.356 413.32C192.14 413.32 191.009 413.128 189.964 412.744C188.94 412.339 188.055 411.752 187.308 410.984C186.561 410.195 185.975 409.235 185.548 408.104C185.143 406.973 184.94 405.683 184.94 404.232C184.94 402.291 185.281 400.659 185.964 399.336C186.647 397.992 187.628 396.968 188.908 396.264C190.188 395.56 191.703 395.208 193.452 395.208C195.095 395.208 196.545 395.56 197.804 396.264C199.063 396.968 200.055 397.992 200.78 399.336C201.505 400.659 201.868 402.291 201.868 404.232ZM189.804 404.232C189.804 405.384 189.921 406.355 190.156 407.144C190.412 407.912 190.807 408.499 191.34 408.904C191.873 409.288 192.567 409.48 193.42 409.48C194.273 409.48 194.956 409.288 195.468 408.904C196.001 408.499 196.385 407.912 196.62 407.144C196.876 406.355 197.004 405.384 197.004 404.232C197.004 403.08 196.876 402.12 196.62 401.352C196.385 400.584 196.001 400.008 195.468 399.624C194.935 399.24 194.241 399.048 193.388 399.048C192.129 399.048 191.212 399.485 190.636 400.36C190.081 401.213 189.804 402.504 189.804 404.232ZM209.344 413L202.688 395.528H207.68L211.04 405.48C211.168 405.864 211.274 406.269 211.36 406.696C211.466 407.123 211.541 407.539 211.584 407.944C211.648 408.349 211.69 408.723 211.712 409.064H211.84C211.861 408.701 211.904 408.317 211.968 407.912C212.032 407.507 212.106 407.101 212.192 406.696C212.298 406.269 212.416 405.864 212.544 405.48L215.904 395.528H220.896L214.24 413H209.344ZM230.602 395.208C232.224 395.208 233.61 395.517 234.762 396.136C235.936 396.755 236.842 397.651 237.482 398.824C238.122 399.997 238.442 401.437 238.442 403.144V405.448H227.178C227.221 406.792 227.616 407.848 228.362 408.616C229.13 409.384 230.186 409.768 231.53 409.768C232.661 409.768 233.685 409.661 234.602 409.448C235.52 409.213 236.469 408.861 237.45 408.392V412.072C236.597 412.499 235.69 412.808 234.73 413C233.792 413.213 232.65 413.32 231.306 413.32C229.557 413.32 228.01 413 226.666 412.36C225.322 411.699 224.266 410.707 223.498 409.384C222.73 408.061 222.346 406.397 222.346 404.392C222.346 402.344 222.688 400.648 223.37 399.304C224.074 397.939 225.045 396.915 226.282 396.232C227.52 395.549 228.96 395.208 230.602 395.208ZM230.634 398.6C229.717 398.6 228.949 398.899 228.33 399.496C227.733 400.093 227.381 401.021 227.274 402.28H233.962C233.962 401.576 233.834 400.947 233.578 400.392C233.344 399.837 232.981 399.4 232.49 399.08C232 398.76 231.381 398.6 230.634 398.6ZM271.741 401.544C271.741 403.251 271.538 404.808 271.133 406.216C270.728 407.624 270.109 408.851 269.277 409.896C268.445 410.92 267.389 411.72 266.109 412.296L271.613 418.44H265.405L261.213 413.32C261.149 413.32 261.085 413.32 261.021 413.32C260.978 413.32 260.925 413.32 260.861 413.32C259.005 413.32 257.384 413.043 255.997 412.488C254.632 411.912 253.501 411.112 252.605 410.088C251.73 409.043 251.069 407.795 250.621 406.344C250.194 404.893 249.981 403.283 249.981 401.512C249.981 399.144 250.365 397.085 251.133 395.336C251.922 393.587 253.117 392.232 254.717 391.272C256.338 390.291 258.397 389.8 260.893 389.8C263.368 389.8 265.405 390.291 267.005 391.272C268.605 392.232 269.789 393.597 270.557 395.368C271.346 397.117 271.741 399.176 271.741 401.544ZM255.069 401.544C255.069 403.144 255.272 404.52 255.677 405.672C256.082 406.824 256.712 407.709 257.565 408.328C258.418 408.947 259.517 409.256 260.861 409.256C262.248 409.256 263.357 408.947 264.189 408.328C265.042 407.709 265.661 406.824 266.045 405.672C266.45 404.52 266.653 403.144 266.653 401.544C266.653 399.133 266.205 397.245 265.309 395.88C264.413 394.515 262.941 393.832 260.893 393.832C259.528 393.832 258.418 394.141 257.565 394.76C256.712 395.379 256.082 396.264 255.677 397.416C255.272 398.568 255.069 399.944 255.069 401.544ZM280.858 395.528V413H276.09V395.528H280.858ZM278.49 388.68C279.194 388.68 279.802 388.851 280.314 389.192C280.826 389.512 281.082 390.12 281.082 391.016C281.082 391.891 280.826 392.499 280.314 392.84C279.802 393.181 279.194 393.352 278.49 393.352C277.764 393.352 277.146 393.181 276.634 392.84C276.143 392.499 275.898 391.891 275.898 391.016C275.898 390.12 276.143 389.512 276.634 389.192C277.146 388.851 277.764 388.68 278.49 388.68ZM290.608 395.528V413H285.84V395.528H290.608ZM288.24 388.68C288.944 388.68 289.552 388.851 290.064 389.192C290.576 389.512 290.832 390.12 290.832 391.016C290.832 391.891 290.576 392.499 290.064 392.84C289.552 393.181 288.944 393.352 288.24 393.352C287.514 393.352 286.896 393.181 286.384 392.84C285.893 392.499 285.648 391.891 285.648 391.016C285.648 390.12 285.893 389.512 286.384 389.192C286.896 388.851 287.514 388.68 288.24 388.68ZM302.95 409.512C303.483 409.512 303.995 409.459 304.486 409.352C304.976 409.245 305.467 409.117 305.958 408.968V412.52C305.446 412.733 304.806 412.915 304.038 413.064C303.291 413.235 302.47 413.32 301.574 413.32C300.528 413.32 299.59 413.149 298.758 412.808C297.947 412.467 297.296 411.88 296.806 411.048C296.336 410.195 296.102 409.021 296.102 407.528V399.112H293.83V397.096L296.454 395.496L297.83 391.816H300.87V395.528H305.766V399.112H300.87V407.528C300.87 408.189 301.062 408.691 301.446 409.032C301.83 409.352 302.331 409.512 302.95 409.512ZM316.633 395.176C318.979 395.176 320.771 395.688 322.009 396.712C323.267 397.715 323.897 399.261 323.897 401.352V413H320.569L319.641 410.632H319.513C319.022 411.251 318.51 411.763 317.977 412.168C317.465 412.573 316.867 412.861 316.185 413.032C315.523 413.224 314.702 413.32 313.721 413.32C312.697 413.32 311.769 413.128 310.937 412.744C310.126 412.339 309.486 411.731 309.017 410.92C308.547 410.088 308.313 409.043 308.313 407.784C308.313 405.928 308.963 404.563 310.265 403.688C311.566 402.792 313.518 402.301 316.121 402.216L319.161 402.12V401.352C319.161 400.435 318.915 399.763 318.425 399.336C317.955 398.909 317.294 398.696 316.441 398.696C315.587 398.696 314.755 398.824 313.945 399.08C313.134 399.315 312.323 399.613 311.513 399.976L309.945 396.744C310.883 396.253 311.918 395.869 313.049 395.592C314.201 395.315 315.395 395.176 316.633 395.176ZM317.305 404.968C315.769 405.011 314.702 405.288 314.105 405.8C313.507 406.312 313.209 406.984 313.209 407.816C313.209 408.541 313.422 409.064 313.849 409.384C314.275 409.683 314.83 409.832 315.513 409.832C316.537 409.832 317.401 409.533 318.105 408.936C318.809 408.317 319.161 407.453 319.161 406.344V404.904L317.305 404.968ZM333.449 409.64C333.257 410.387 333.012 411.197 332.713 412.072C332.415 412.925 332.095 413.779 331.753 414.632C331.412 415.507 331.06 416.339 330.697 417.128H327.273C327.487 416.275 327.689 415.379 327.881 414.44C328.073 413.523 328.255 412.616 328.425 411.72C328.596 410.824 328.735 410.013 328.841 409.288H333.225L333.449 409.64ZM359.239 406.888C359.153 406.525 359.025 405.992 358.855 405.288C358.705 404.563 358.535 403.795 358.343 402.984C358.151 402.152 357.969 401.395 357.799 400.712C357.628 400.008 357.511 399.496 357.447 399.176H357.319C357.255 399.496 357.137 400.008 356.967 400.712C356.817 401.395 356.647 402.152 356.455 402.984C356.263 403.795 356.081 404.563 355.911 405.288C355.74 406.013 355.612 406.568 355.527 406.952L354.119 413H348.999L344.039 395.528H348.775L350.791 403.272C350.94 403.805 351.068 404.445 351.175 405.192C351.303 405.939 351.42 406.664 351.527 407.368C351.633 408.051 351.708 408.595 351.751 409H351.879C351.9 408.701 351.943 408.307 352.007 407.816C352.071 407.304 352.145 406.781 352.231 406.248C352.337 405.715 352.423 405.235 352.487 404.808C352.572 404.36 352.636 404.061 352.679 403.912L354.823 395.528H360.071L362.119 403.912C362.204 404.211 362.3 404.691 362.407 405.352C362.535 406.013 362.641 406.685 362.727 407.368C362.833 408.051 362.887 408.595 362.887 409H363.015C363.057 408.637 363.132 408.115 363.239 407.432C363.345 406.728 363.463 405.992 363.591 405.224C363.74 404.456 363.889 403.805 364.039 403.272L366.119 395.528H370.791L365.767 413H360.583L359.239 406.888ZM378.389 393.64C378.389 394.493 378.357 395.315 378.293 396.104C378.25 396.893 378.208 397.448 378.165 397.768H378.421C378.805 397.171 379.253 396.691 379.765 396.328C380.277 395.944 380.842 395.667 381.461 395.496C382.101 395.304 382.773 395.208 383.477 395.208C384.736 395.208 385.834 395.432 386.773 395.88C387.712 396.328 388.437 397.021 388.949 397.96C389.482 398.899 389.749 400.115 389.749 401.608V413H384.981V402.792C384.981 401.533 384.746 400.595 384.277 399.976C383.829 399.336 383.125 399.016 382.165 399.016C381.205 399.016 380.448 399.24 379.893 399.688C379.36 400.136 378.976 400.787 378.741 401.64C378.506 402.493 378.389 403.539 378.389 404.776V413H373.621V388.68H378.389V393.64ZM401.852 395.208C403.474 395.208 404.86 395.517 406.012 396.136C407.186 396.755 408.092 397.651 408.732 398.824C409.372 399.997 409.692 401.437 409.692 403.144V405.448H398.428C398.471 406.792 398.866 407.848 399.612 408.616C400.38 409.384 401.436 409.768 402.78 409.768C403.911 409.768 404.935 409.661 405.852 409.448C406.77 409.213 407.719 408.861 408.7 408.392V412.072C407.847 412.499 406.94 412.808 405.98 413C405.042 413.213 403.9 413.32 402.556 413.32C400.807 413.32 399.26 413 397.916 412.36C396.572 411.699 395.516 410.707 394.748 409.384C393.98 408.061 393.596 406.397 393.596 404.392C393.596 402.344 393.938 400.648 394.62 399.304C395.324 397.939 396.295 396.915 397.532 396.232C398.77 395.549 400.21 395.208 401.852 395.208ZM401.884 398.6C400.967 398.6 400.199 398.899 399.58 399.496C398.983 400.093 398.631 401.021 398.524 402.28H405.212C405.212 401.576 405.084 400.947 404.828 400.392C404.594 399.837 404.231 399.4 403.74 399.08C403.25 398.76 402.631 398.6 401.884 398.6ZM423.319 395.208C423.553 395.208 423.831 395.219 424.151 395.24C424.471 395.261 424.727 395.293 424.919 395.336L424.567 399.816C424.417 399.773 424.193 399.741 423.895 399.72C423.617 399.677 423.372 399.656 423.159 399.656C422.54 399.656 421.943 399.741 421.367 399.912C420.791 400.061 420.268 400.307 419.799 400.648C419.351 400.989 418.988 401.448 418.711 402.024C418.455 402.579 418.327 403.272 418.327 404.104V413H413.559V395.528H417.175L417.879 398.472H418.103C418.444 397.875 418.871 397.331 419.383 396.84C419.895 396.349 420.481 395.955 421.143 395.656C421.825 395.357 422.551 395.208 423.319 395.208ZM434.665 395.208C436.286 395.208 437.673 395.517 438.825 396.136C439.998 396.755 440.905 397.651 441.545 398.824C442.185 399.997 442.505 401.437 442.505 403.144V405.448H431.241C431.283 406.792 431.678 407.848 432.425 408.616C433.193 409.384 434.249 409.768 435.593 409.768C436.723 409.768 437.747 409.661 438.665 409.448C439.582 409.213 440.531 408.861 441.513 408.392V412.072C440.659 412.499 439.753 412.808 438.793 413C437.854 413.213 436.713 413.32 435.369 413.32C433.619 413.32 432.073 413 430.729 412.36C429.385 411.699 428.329 410.707 427.561 409.384C426.793 408.061 426.409 406.397 426.409 404.392C426.409 402.344 426.75 400.648 427.433 399.304C428.137 397.939 429.107 396.915 430.345 396.232C431.582 395.549 433.022 395.208 434.665 395.208ZM434.697 398.6C433.779 398.6 433.011 398.899 432.393 399.496C431.795 400.093 431.443 401.021 431.337 402.28H438.025C438.025 401.576 437.897 400.947 437.641 400.392C437.406 399.837 437.043 399.4 436.553 399.08C436.062 398.76 435.443 398.6 434.697 398.6ZM475.196 395.208C477.18 395.208 478.673 395.72 479.676 396.744C480.7 397.747 481.212 399.368 481.212 401.608V413H476.444V402.792C476.444 401.533 476.23 400.595 475.804 399.976C475.377 399.336 474.716 399.016 473.82 399.016C472.561 399.016 471.665 399.464 471.132 400.36C470.598 401.256 470.332 402.547 470.332 404.232V413H465.564V402.792C465.564 401.96 465.468 401.267 465.276 400.712C465.084 400.157 464.796 399.741 464.412 399.464C464.028 399.165 463.537 399.016 462.94 399.016C462.065 399.016 461.372 399.24 460.86 399.688C460.348 400.136 459.985 400.787 459.772 401.64C459.558 402.493 459.452 403.539 459.452 404.776V413H454.684V395.528H458.332L458.972 397.768H459.228C459.59 397.171 460.038 396.691 460.572 396.328C461.105 395.944 461.692 395.667 462.332 395.496C462.993 395.304 463.654 395.208 464.316 395.208C465.596 395.208 466.684 395.421 467.58 395.848C468.476 396.253 469.158 396.893 469.628 397.768H470.044C470.577 396.872 471.313 396.221 472.252 395.816C473.212 395.411 474.193 395.208 475.196 395.208ZM493.289 395.176C495.636 395.176 497.428 395.688 498.665 396.712C499.924 397.715 500.553 399.261 500.553 401.352V413H497.225L496.297 410.632H496.169C495.678 411.251 495.166 411.763 494.633 412.168C494.121 412.573 493.524 412.861 492.841 413.032C492.18 413.224 491.358 413.32 490.377 413.32C489.353 413.32 488.425 413.128 487.593 412.744C486.782 412.339 486.142 411.731 485.673 410.92C485.204 410.088 484.969 409.043 484.969 407.784C484.969 405.928 485.62 404.563 486.921 403.688C488.222 402.792 490.174 402.301 492.777 402.216L495.817 402.12V401.352C495.817 400.435 495.572 399.763 495.081 399.336C494.612 398.909 493.95 398.696 493.097 398.696C492.244 398.696 491.412 398.824 490.601 399.08C489.79 399.315 488.98 399.613 488.169 399.976L486.601 396.744C487.54 396.253 488.574 395.869 489.705 395.592C490.857 395.315 492.052 395.176 493.289 395.176ZM493.961 404.968C492.425 405.011 491.358 405.288 490.761 405.8C490.164 406.312 489.865 406.984 489.865 407.816C489.865 408.541 490.078 409.064 490.505 409.384C490.932 409.683 491.486 409.832 492.169 409.832C493.193 409.832 494.057 409.533 494.761 408.936C495.465 408.317 495.817 407.453 495.817 406.344V404.904L493.961 404.968ZM515.354 395.208C517.231 395.208 518.735 395.72 519.866 396.744C520.996 397.747 521.562 399.368 521.562 401.608V413H516.794V402.792C516.794 401.533 516.57 400.595 516.122 399.976C515.674 399.336 514.959 399.016 513.978 399.016C512.527 399.016 511.535 399.517 511.002 400.52C510.468 401.501 510.202 402.92 510.202 404.776V413H505.434V395.528H509.082L509.722 397.768H509.978C510.362 397.171 510.831 396.691 511.385 396.328C511.94 395.944 512.559 395.667 513.242 395.496C513.924 395.304 514.628 395.208 515.354 395.208ZM523.969 395.528H529.185L532.481 405.352C532.587 405.672 532.673 405.992 532.737 406.312C532.822 406.632 532.886 406.963 532.929 407.304C532.993 407.645 533.035 408.008 533.057 408.392H533.153C533.217 407.837 533.302 407.315 533.409 406.824C533.537 406.312 533.675 405.821 533.825 405.352L537.057 395.528H542.177L534.785 415.24C534.337 416.435 533.75 417.437 533.025 418.248C532.321 419.059 531.499 419.667 530.561 420.072C529.622 420.477 528.598 420.68 527.489 420.68C526.955 420.68 526.486 420.648 526.081 420.584C525.697 420.541 525.355 420.488 525.057 420.424V416.648C525.291 416.691 525.569 416.733 525.889 416.776C526.23 416.819 526.582 416.84 526.945 416.84C527.606 416.84 528.171 416.701 528.641 416.424C529.131 416.147 529.537 415.763 529.857 415.272C530.177 414.803 530.433 414.291 530.625 413.736L530.913 412.872L523.969 395.528ZM565.188 407.816C565.188 408.989 564.911 409.992 564.356 410.824C563.801 411.635 562.969 412.253 561.86 412.68C560.751 413.107 559.375 413.32 557.732 413.32C556.516 413.32 555.471 413.235 554.596 413.064C553.721 412.915 552.847 412.659 551.972 412.296V408.36C552.911 408.787 553.924 409.139 555.012 409.416C556.1 409.693 557.06 409.832 557.892 409.832C558.831 409.832 559.492 409.693 559.876 409.416C560.281 409.139 560.484 408.776 560.484 408.328C560.484 408.029 560.399 407.763 560.228 407.528C560.079 407.293 559.737 407.027 559.204 406.728C558.671 406.429 557.839 406.045 556.708 405.576C555.62 405.107 554.724 404.648 554.02 404.2C553.316 403.731 552.793 403.176 552.452 402.536C552.111 401.875 551.94 401.053 551.94 400.072C551.94 398.451 552.569 397.235 553.828 396.424C555.087 395.613 556.761 395.208 558.852 395.208C559.94 395.208 560.975 395.315 561.956 395.528C562.937 395.741 563.951 396.093 564.996 396.584L563.556 400.008C562.98 399.752 562.425 399.528 561.892 399.336C561.359 399.144 560.836 398.995 560.324 398.888C559.833 398.781 559.321 398.728 558.788 398.728C558.084 398.728 557.551 398.824 557.188 399.016C556.847 399.208 556.676 399.496 556.676 399.88C556.676 400.157 556.761 400.413 556.932 400.648C557.124 400.861 557.476 401.096 557.988 401.352C558.521 401.608 559.3 401.949 560.324 402.376C561.327 402.781 562.191 403.208 562.916 403.656C563.641 404.083 564.196 404.627 564.58 405.288C564.985 405.928 565.188 406.771 565.188 407.816ZM576.102 395.208C577.724 395.208 579.11 395.517 580.262 396.136C581.436 396.755 582.342 397.651 582.982 398.824C583.622 399.997 583.942 401.437 583.942 403.144V405.448H572.678C572.721 406.792 573.116 407.848 573.862 408.616C574.63 409.384 575.686 409.768 577.03 409.768C578.161 409.768 579.185 409.661 580.102 409.448C581.02 409.213 581.969 408.861 582.95 408.392V412.072C582.097 412.499 581.19 412.808 580.23 413C579.292 413.213 578.15 413.32 576.806 413.32C575.057 413.32 573.51 413 572.166 412.36C570.822 411.699 569.766 410.707 568.998 409.384C568.23 408.061 567.846 406.397 567.846 404.392C567.846 402.344 568.188 400.648 568.87 399.304C569.574 397.939 570.545 396.915 571.782 396.232C573.02 395.549 574.46 395.208 576.102 395.208ZM576.134 398.6C575.217 398.6 574.449 398.899 573.83 399.496C573.233 400.093 572.881 401.021 572.774 402.28H579.462C579.462 401.576 579.334 400.947 579.078 400.392C578.844 399.837 578.481 399.4 577.99 399.08C577.5 398.76 576.881 398.6 576.134 398.6ZM595.009 395.208C596.63 395.208 598.017 395.517 599.169 396.136C600.342 396.755 601.249 397.651 601.889 398.824C602.529 399.997 602.849 401.437 602.849 403.144V405.448H591.585C591.627 406.792 592.022 407.848 592.769 408.616C593.537 409.384 594.593 409.768 595.937 409.768C597.067 409.768 598.091 409.661 599.009 409.448C599.926 409.213 600.875 408.861 601.857 408.392V412.072C601.003 412.499 600.097 412.808 599.137 413C598.198 413.213 597.057 413.32 595.713 413.32C593.963 413.32 592.417 413 591.073 412.36C589.729 411.699 588.673 410.707 587.905 409.384C587.137 408.061 586.753 406.397 586.753 404.392C586.753 402.344 587.094 400.648 587.777 399.304C588.481 397.939 589.451 396.915 590.689 396.232C591.926 395.549 593.366 395.208 595.009 395.208ZM595.041 398.6C594.123 398.6 593.355 398.899 592.737 399.496C592.139 400.093 591.787 401.021 591.681 402.28H598.369C598.369 401.576 598.241 400.947 597.985 400.392C597.75 399.837 597.387 399.4 596.897 399.08C596.406 398.76 595.787 398.6 595.041 398.6ZM611.483 399.56C611.483 400.221 611.451 400.883 611.387 401.544C611.344 402.184 611.291 402.835 611.227 403.496H611.291C611.504 403.197 611.717 402.899 611.931 402.6C612.165 402.301 612.4 402.003 612.635 401.704C612.869 401.405 613.115 401.117 613.371 400.84L618.267 395.528H623.643L616.699 403.112L624.059 413H618.555L613.531 405.928L611.483 407.56V413H606.715V388.68H611.483V399.56ZM633.759 395.208C635.38 395.208 636.767 395.517 637.919 396.136C639.092 396.755 639.999 397.651 640.639 398.824C641.279 399.997 641.599 401.437 641.599 403.144V405.448H630.335C630.377 406.792 630.772 407.848 631.519 408.616C632.287 409.384 633.343 409.768 634.687 409.768C635.817 409.768 636.841 409.661 637.759 409.448C638.676 409.213 639.625 408.861 640.607 408.392V412.072C639.753 412.499 638.847 412.808 637.887 413C636.948 413.213 635.807 413.32 634.463 413.32C632.713 413.32 631.167 413 629.823 412.36C628.479 411.699 627.423 410.707 626.655 409.384C625.887 408.061 625.503 406.397 625.503 404.392C625.503 402.344 625.844 400.648 626.527 399.304C627.231 397.939 628.201 396.915 629.439 396.232C630.676 395.549 632.116 395.208 633.759 395.208ZM633.791 398.6C632.873 398.6 632.105 398.899 631.487 399.496C630.889 400.093 630.537 401.021 630.431 402.28H637.119C637.119 401.576 636.991 400.947 636.735 400.392C636.5 399.837 636.137 399.4 635.647 399.08C635.156 398.76 634.537 398.6 633.791 398.6ZM655.225 395.208C655.459 395.208 655.737 395.219 656.057 395.24C656.377 395.261 656.633 395.293 656.825 395.336L656.473 399.816C656.323 399.773 656.099 399.741 655.801 399.72C655.523 399.677 655.278 399.656 655.065 399.656C654.446 399.656 653.849 399.741 653.273 399.912C652.697 400.061 652.174 400.307 651.705 400.648C651.257 400.989 650.894 401.448 650.617 402.024C650.361 402.579 650.233 403.272 650.233 404.104V413H645.465V395.528H649.081L649.785 398.472H650.009C650.35 397.875 650.777 397.331 651.289 396.84C651.801 396.349 652.387 395.955 653.049 395.656C653.731 395.357 654.457 395.208 655.225 395.208ZM672.188 407.816C672.188 408.989 671.911 409.992 671.356 410.824C670.801 411.635 669.969 412.253 668.86 412.68C667.751 413.107 666.375 413.32 664.732 413.32C663.516 413.32 662.471 413.235 661.596 413.064C660.721 412.915 659.847 412.659 658.972 412.296V408.36C659.911 408.787 660.924 409.139 662.012 409.416C663.1 409.693 664.06 409.832 664.892 409.832C665.831 409.832 666.492 409.693 666.876 409.416C667.281 409.139 667.484 408.776 667.484 408.328C667.484 408.029 667.399 407.763 667.228 407.528C667.079 407.293 666.737 407.027 666.204 406.728C665.671 406.429 664.839 406.045 663.708 405.576C662.62 405.107 661.724 404.648 661.02 404.2C660.316 403.731 659.793 403.176 659.452 402.536C659.111 401.875 658.94 401.053 658.94 400.072C658.94 398.451 659.569 397.235 660.828 396.424C662.087 395.613 663.761 395.208 665.852 395.208C666.94 395.208 667.975 395.315 668.956 395.528C669.937 395.741 670.951 396.093 671.996 396.584L670.556 400.008C669.98 399.752 669.425 399.528 668.892 399.336C668.359 399.144 667.836 398.995 667.324 398.888C666.833 398.781 666.321 398.728 665.788 398.728C665.084 398.728 664.551 398.824 664.188 399.016C663.847 399.208 663.676 399.496 663.676 399.88C663.676 400.157 663.761 400.413 663.932 400.648C664.124 400.861 664.476 401.096 664.988 401.352C665.521 401.608 666.3 401.949 667.324 402.376C668.327 402.781 669.191 403.208 669.916 403.656C670.641 404.083 671.196 404.627 671.58 405.288C671.985 405.928 672.188 406.771 672.188 407.816ZM700.087 404.232C700.087 405.683 699.884 406.973 699.479 408.104C699.095 409.235 698.529 410.195 697.783 410.984C697.057 411.752 696.172 412.339 695.127 412.744C694.081 413.128 692.897 413.32 691.575 413.32C690.359 413.32 689.228 413.128 688.183 412.744C687.159 412.339 686.273 411.752 685.527 410.984C684.78 410.195 684.193 409.235 683.767 408.104C683.361 406.973 683.159 405.683 683.159 404.232C683.159 402.291 683.5 400.659 684.183 399.336C684.865 397.992 685.847 396.968 687.127 396.264C688.407 395.56 689.921 395.208 691.671 395.208C693.313 395.208 694.764 395.56 696.023 396.264C697.281 396.968 698.273 397.992 698.999 399.336C699.724 400.659 700.087 402.291 700.087 404.232ZM688.023 404.232C688.023 405.384 688.14 406.355 688.375 407.144C688.631 407.912 689.025 408.499 689.559 408.904C690.092 409.288 690.785 409.48 691.639 409.48C692.492 409.48 693.175 409.288 693.687 408.904C694.22 408.499 694.604 407.912 694.839 407.144C695.095 406.355 695.223 405.384 695.223 404.232C695.223 403.08 695.095 402.12 694.839 401.352C694.604 400.584 694.22 400.008 693.687 399.624C693.153 399.24 692.46 399.048 691.607 399.048C690.348 399.048 689.431 399.485 688.855 400.36C688.3 401.213 688.023 402.504 688.023 404.232ZM713.691 399.112H709.563V413H704.795V399.112H702.171V396.808L704.795 395.528V394.248C704.795 392.755 705.041 391.603 705.531 390.792C706.043 389.96 706.758 389.373 707.675 389.032C708.614 388.691 709.713 388.52 710.971 388.52C711.91 388.52 712.753 388.595 713.499 388.744C714.267 388.893 714.886 389.064 715.355 389.256L714.139 392.744C713.777 392.637 713.382 392.541 712.955 392.456C712.529 392.349 712.038 392.296 711.483 392.296C710.822 392.296 710.331 392.499 710.011 392.904C709.713 393.309 709.563 393.821 709.563 394.44V395.528H713.691V399.112ZM729.483 399.56C729.483 400.221 729.451 400.883 729.387 401.544C729.344 402.184 729.291 402.835 729.227 403.496H729.291C729.504 403.197 729.717 402.899 729.931 402.6C730.165 402.301 730.4 402.003 730.635 401.704C730.869 401.405 731.115 401.117 731.371 400.84L736.267 395.528H741.643L734.699 403.112L742.059 413H736.555L731.531 405.928L729.483 407.56V413H724.715V388.68H729.483V399.56ZM754.479 395.208C756.356 395.208 757.86 395.72 758.991 396.744C760.121 397.747 760.687 399.368 760.687 401.608V413H755.919V402.792C755.919 401.533 755.695 400.595 755.247 399.976C754.799 399.336 754.084 399.016 753.103 399.016C751.652 399.016 750.66 399.517 750.127 400.52C749.593 401.501 749.327 402.92 749.327 404.776V413H744.559V395.528H748.207L748.847 397.768H749.103C749.487 397.171 749.956 396.691 750.51 396.328C751.065 395.944 751.684 395.667 752.367 395.496C753.049 395.304 753.753 395.208 754.479 395.208ZM781.462 404.232C781.462 405.683 781.259 406.973 780.854 408.104C780.47 409.235 779.904 410.195 779.158 410.984C778.432 411.752 777.547 412.339 776.502 412.744C775.456 413.128 774.272 413.32 772.95 413.32C771.734 413.32 770.603 413.128 769.558 412.744C768.534 412.339 767.648 411.752 766.902 410.984C766.155 410.195 765.568 409.235 765.142 408.104C764.736 406.973 764.534 405.683 764.534 404.232C764.534 402.291 764.875 400.659 765.558 399.336C766.24 397.992 767.222 396.968 768.502 396.264C769.782 395.56 771.296 395.208 773.046 395.208C774.688 395.208 776.139 395.56 777.398 396.264C778.656 396.968 779.648 397.992 780.374 399.336C781.099 400.659 781.462 402.291 781.462 404.232ZM769.398 404.232C769.398 405.384 769.515 406.355 769.75 407.144C770.006 407.912 770.4 408.499 770.934 408.904C771.467 409.288 772.16 409.48 773.014 409.48C773.867 409.48 774.55 409.288 775.062 408.904C775.595 408.499 775.979 407.912 776.214 407.144C776.47 406.355 776.598 405.384 776.598 404.232C776.598 403.08 776.47 402.12 776.214 401.352C775.979 400.584 775.595 400.008 775.062 399.624C774.528 399.24 773.835 399.048 772.982 399.048C771.723 399.048 770.806 399.485 770.23 400.36C769.675 401.213 769.398 402.504 769.398 404.232ZM797.801 406.888C797.716 406.525 797.588 405.992 797.417 405.288C797.268 404.563 797.097 403.795 796.905 402.984C796.713 402.152 796.532 401.395 796.361 400.712C796.191 400.008 796.073 399.496 796.009 399.176H795.881C795.817 399.496 795.7 400.008 795.529 400.712C795.38 401.395 795.209 402.152 795.017 402.984C794.825 403.795 794.644 404.563 794.473 405.288C794.303 406.013 794.175 406.568 794.089 406.952L792.681 413H787.561L782.601 395.528H787.337L789.353 403.272C789.503 403.805 789.631 404.445 789.737 405.192C789.865 405.939 789.983 406.664 790.089 407.368C790.196 408.051 790.271 408.595 790.313 409H790.441C790.463 408.701 790.505 408.307 790.569 407.816C790.633 407.304 790.708 406.781 790.793 406.248C790.9 405.715 790.985 405.235 791.049 404.808C791.135 404.36 791.199 404.061 791.241 403.912L793.385 395.528H798.633L800.681 403.912C800.767 404.211 800.863 404.691 800.969 405.352C801.097 406.013 801.204 406.685 801.289 407.368C801.396 408.051 801.449 408.595 801.449 409H801.577C801.62 408.637 801.695 408.115 801.801 407.432C801.908 406.728 802.025 405.992 802.153 405.224C802.303 404.456 802.452 403.805 802.601 403.272L804.681 395.528H809.353L804.329 413H799.145L797.801 406.888ZM816.952 413H812.184V388.68H816.952V413ZM829.134 395.208C830.755 395.208 832.142 395.517 833.294 396.136C834.467 396.755 835.374 397.651 836.014 398.824C836.654 399.997 836.974 401.437 836.974 403.144V405.448H825.71C825.752 406.792 826.147 407.848 826.894 408.616C827.662 409.384 828.718 409.768 830.062 409.768C831.192 409.768 832.216 409.661 833.134 409.448C834.051 409.213 835 408.861 835.982 408.392V412.072C835.128 412.499 834.222 412.808 833.262 413C832.323 413.213 831.182 413.32 829.838 413.32C828.088 413.32 826.542 413 825.198 412.36C823.854 411.699 822.798 410.707 822.03 409.384C821.262 408.061 820.878 406.397 820.878 404.392C820.878 402.344 821.219 400.648 821.902 399.304C822.606 397.939 823.576 396.915 824.814 396.232C826.051 395.549 827.491 395.208 829.134 395.208ZM829.166 398.6C828.248 398.6 827.48 398.899 826.862 399.496C826.264 400.093 825.912 401.021 825.806 402.28H832.494C832.494 401.576 832.366 400.947 832.11 400.392C831.875 399.837 831.512 399.4 831.022 399.08C830.531 398.76 829.912 398.6 829.166 398.6ZM846.376 413.32C844.434 413.32 842.845 412.563 841.608 411.048C840.392 409.512 839.784 407.261 839.784 404.296C839.784 401.309 840.402 399.048 841.64 397.512C842.877 395.976 844.498 395.208 846.504 395.208C847.336 395.208 848.072 395.325 848.712 395.56C849.352 395.773 849.896 396.072 850.344 396.456C850.813 396.84 851.208 397.277 851.528 397.768H851.688C851.624 397.427 851.549 396.936 851.464 396.296C851.378 395.635 851.336 394.963 851.336 394.28V388.68H856.104V413H852.456L851.528 410.728H851.336C851.037 411.197 850.653 411.635 850.184 412.04C849.736 412.424 849.202 412.733 848.584 412.968C847.965 413.203 847.229 413.32 846.376 413.32ZM848.04 409.512C849.362 409.512 850.29 409.128 850.824 408.36C851.357 407.571 851.634 406.397 851.656 404.84V404.328C851.656 402.621 851.389 401.32 850.856 400.424C850.344 399.528 849.384 399.08 847.976 399.08C846.93 399.08 846.109 399.539 845.512 400.456C844.914 401.352 844.616 402.653 844.616 404.36C844.616 406.067 844.914 407.357 845.512 408.232C846.109 409.085 846.952 409.512 848.04 409.512ZM866.754 395.208C867.82 395.208 868.78 395.421 869.634 395.848C870.487 396.275 871.212 396.915 871.81 397.768H871.938L872.322 395.528H876.354V413.032C876.354 414.696 876.023 416.093 875.362 417.224C874.722 418.355 873.751 419.208 872.45 419.784C871.148 420.381 869.538 420.68 867.618 420.68C866.38 420.68 865.228 420.605 864.162 420.456C863.116 420.307 862.092 420.04 861.09 419.656V415.848C861.815 416.147 862.54 416.392 863.266 416.584C864.012 416.797 864.77 416.947 865.538 417.032C866.327 417.139 867.116 417.192 867.906 417.192C869.143 417.192 870.06 416.861 870.658 416.2C871.276 415.539 871.586 414.547 871.586 413.224V412.872C871.586 412.509 871.596 412.136 871.618 411.752C871.66 411.368 871.692 411.027 871.714 410.728H871.586C870.988 411.645 870.274 412.307 869.442 412.712C868.61 413.117 867.671 413.32 866.626 413.32C864.556 413.32 862.935 412.531 861.762 410.952C860.61 409.352 860.034 407.133 860.034 404.296C860.034 402.376 860.3 400.744 860.834 399.4C861.367 398.035 862.135 397 863.138 396.296C864.162 395.571 865.367 395.208 866.754 395.208ZM868.258 399.08C867.511 399.08 866.882 399.283 866.37 399.688C865.879 400.072 865.506 400.659 865.25 401.448C865.015 402.216 864.898 403.187 864.898 404.36C864.898 406.109 865.175 407.421 865.73 408.296C866.284 409.149 867.148 409.576 868.322 409.576C868.94 409.576 869.474 409.501 869.922 409.352C870.37 409.181 870.732 408.915 871.01 408.552C871.308 408.168 871.532 407.677 871.682 407.08C871.831 406.483 871.906 405.757 871.906 404.904V404.328C871.906 403.069 871.778 402.056 871.522 401.288C871.266 400.52 870.871 399.965 870.338 399.624C869.804 399.261 869.111 399.08 868.258 399.08ZM888.54 395.208C890.161 395.208 891.548 395.517 892.7 396.136C893.873 396.755 894.78 397.651 895.42 398.824C896.06 399.997 896.38 401.437 896.38 403.144V405.448H885.116C885.158 406.792 885.553 407.848 886.3 408.616C887.068 409.384 888.124 409.768 889.468 409.768C890.598 409.768 891.622 409.661 892.54 409.448C893.457 409.213 894.406 408.861 895.388 408.392V412.072C894.534 412.499 893.628 412.808 892.668 413C891.729 413.213 890.588 413.32 889.244 413.32C887.494 413.32 885.948 413 884.604 412.36C883.26 411.699 882.204 410.707 881.436 409.384C880.668 408.061 880.284 406.397 880.284 404.392C880.284 402.344 880.625 400.648 881.308 399.304C882.012 397.939 882.982 396.915 884.22 396.232C885.457 395.549 886.897 395.208 888.54 395.208ZM888.572 398.6C887.654 398.6 886.886 398.899 886.268 399.496C885.67 400.093 885.318 401.021 885.212 402.28H891.9C891.9 401.576 891.772 400.947 891.516 400.392C891.281 399.837 890.918 399.4 890.428 399.08C889.937 398.76 889.318 398.6 888.572 398.6ZM929.071 395.208C931.055 395.208 932.548 395.72 933.551 396.744C934.575 397.747 935.087 399.368 935.087 401.608V413H930.319V402.792C930.319 401.533 930.105 400.595 929.679 399.976C929.252 399.336 928.591 399.016 927.695 399.016C926.436 399.016 925.54 399.464 925.007 400.36C924.473 401.256 924.207 402.547 924.207 404.232V413H919.439V402.792C919.439 401.96 919.343 401.267 919.151 400.712C918.959 400.157 918.671 399.741 918.287 399.464C917.903 399.165 917.412 399.016 916.815 399.016C915.94 399.016 915.247 399.24 914.735 399.688C914.223 400.136 913.86 400.787 913.647 401.64C913.433 402.493 913.327 403.539 913.327 404.776V413H908.559V395.528H912.207L912.847 397.768H913.103C913.465 397.171 913.913 396.691 914.447 396.328C914.98 395.944 915.567 395.667 916.207 395.496C916.868 395.304 917.529 395.208 918.191 395.208C919.471 395.208 920.559 395.421 921.455 395.848C922.351 396.253 923.033 396.893 923.503 397.768H923.919C924.452 396.872 925.188 396.221 926.127 395.816C927.087 395.411 928.068 395.208 929.071 395.208ZM947.196 395.208C948.817 395.208 950.204 395.517 951.356 396.136C952.529 396.755 953.436 397.651 954.076 398.824C954.716 399.997 955.036 401.437 955.036 403.144V405.448H943.772C943.815 406.792 944.209 407.848 944.956 408.616C945.724 409.384 946.78 409.768 948.124 409.768C949.255 409.768 950.279 409.661 951.196 409.448C952.113 409.213 953.063 408.861 954.044 408.392V412.072C953.191 412.499 952.284 412.808 951.324 413C950.385 413.213 949.244 413.32 947.9 413.32C946.151 413.32 944.604 413 943.26 412.36C941.916 411.699 940.86 410.707 940.092 409.384C939.324 408.061 938.94 406.397 938.94 404.392C938.94 402.344 939.281 400.648 939.964 399.304C940.668 397.939 941.639 396.915 942.876 396.232C944.113 395.549 945.553 395.208 947.196 395.208ZM947.228 398.6C946.311 398.6 945.543 398.899 944.924 399.496C944.327 400.093 943.975 401.021 943.868 402.28H950.556C950.556 401.576 950.428 400.947 950.172 400.392C949.937 399.837 949.575 399.4 949.084 399.08C948.593 398.76 947.975 398.6 947.228 398.6ZM966.102 395.208C967.724 395.208 969.11 395.517 970.262 396.136C971.436 396.755 972.342 397.651 972.982 398.824C973.622 399.997 973.942 401.437 973.942 403.144V405.448H962.678C962.721 406.792 963.116 407.848 963.862 408.616C964.63 409.384 965.686 409.768 967.03 409.768C968.161 409.768 969.185 409.661 970.102 409.448C971.02 409.213 971.969 408.861 972.95 408.392V412.072C972.097 412.499 971.19 412.808 970.23 413C969.292 413.213 968.15 413.32 966.806 413.32C965.057 413.32 963.51 413 962.166 412.36C960.822 411.699 959.766 410.707 958.998 409.384C958.23 408.061 957.846 406.397 957.846 404.392C957.846 402.344 958.188 400.648 958.87 399.304C959.574 397.939 960.545 396.915 961.782 396.232C963.02 395.549 964.46 395.208 966.102 395.208ZM966.134 398.6C965.217 398.6 964.449 398.899 963.83 399.496C963.233 400.093 962.881 401.021 962.774 402.28H969.462C969.462 401.576 969.334 400.947 969.078 400.392C968.844 399.837 968.481 399.4 967.99 399.08C967.5 398.76 966.881 398.6 966.134 398.6ZM985.169 409.512C985.702 409.512 986.214 409.459 986.705 409.352C987.195 409.245 987.686 409.117 988.177 408.968V412.52C987.665 412.733 987.025 412.915 986.257 413.064C985.51 413.235 984.689 413.32 983.793 413.32C982.747 413.32 981.809 413.149 980.977 412.808C980.166 412.467 979.515 411.88 979.025 411.048C978.555 410.195 978.321 409.021 978.321 407.528V399.112H976.049V397.096L978.673 395.496L980.049 391.816H983.089V395.528H987.985V399.112H983.089V407.528C983.089 408.189 983.281 408.691 983.665 409.032C984.049 409.352 984.55 409.512 985.169 409.512ZM1016.03 395.528V413H1012.38L1011.74 410.76H1011.48C1011.12 411.357 1010.65 411.848 1010.08 412.232C1009.52 412.595 1008.9 412.861 1008.22 413.032C1007.54 413.224 1006.83 413.32 1006.11 413.32C1004.87 413.32 1003.78 413.096 1002.84 412.648C1001.91 412.2 1001.18 411.507 1000.67 410.568C1000.16 409.629 999.9 408.413 999.9 406.92V395.528H1004.67V405.736C1004.67 406.973 1004.89 407.912 1005.34 408.552C1005.79 409.192 1006.5 409.512 1007.48 409.512C1008.47 409.512 1009.22 409.288 1009.76 408.84C1010.31 408.392 1010.69 407.741 1010.91 406.888C1011.14 406.035 1011.26 404.989 1011.26 403.752V395.528H1016.03ZM1030.76 395.208C1032.72 395.208 1034.31 395.976 1035.52 397.512C1036.74 399.027 1037.35 401.267 1037.35 404.232C1037.35 406.216 1037.06 407.891 1036.48 409.256C1035.91 410.6 1035.12 411.613 1034.12 412.296C1033.11 412.979 1031.95 413.32 1030.63 413.32C1029.8 413.32 1029.07 413.213 1028.45 413C1027.85 412.787 1027.34 412.509 1026.92 412.168C1026.49 411.827 1026.12 411.464 1025.8 411.08H1025.54C1025.62 411.485 1025.69 411.912 1025.73 412.36C1025.77 412.787 1025.8 413.213 1025.8 413.64V420.68H1021.03V395.528H1024.9L1025.57 397.8H1025.8C1026.12 397.331 1026.5 396.904 1026.95 396.52C1027.4 396.115 1027.93 395.795 1028.55 395.56C1029.19 395.325 1029.92 395.208 1030.76 395.208ZM1029.22 399.016C1028.39 399.016 1027.73 399.187 1027.24 399.528C1026.74 399.869 1026.38 400.392 1026.15 401.096C1025.93 401.779 1025.82 402.643 1025.8 403.688V404.2C1025.8 405.331 1025.9 406.291 1026.12 407.08C1026.33 407.848 1026.69 408.435 1027.2 408.84C1027.72 409.245 1028.41 409.448 1029.28 409.448C1030.01 409.448 1030.61 409.245 1031.08 408.84C1031.54 408.435 1031.9 407.837 1032.13 407.048C1032.37 406.259 1032.48 405.299 1032.48 404.168C1032.48 402.461 1032.22 401.181 1031.68 400.328C1031.17 399.453 1030.35 399.016 1029.22 399.016ZM1040.61 410.76C1040.61 409.779 1040.87 409.096 1041.41 408.712C1041.94 408.307 1042.59 408.104 1043.36 408.104C1044.1 408.104 1044.74 408.307 1045.28 408.712C1045.81 409.096 1046.08 409.779 1046.08 410.76C1046.08 411.699 1045.81 412.381 1045.28 412.808C1044.74 413.213 1044.1 413.416 1043.36 413.416C1042.59 413.416 1041.94 413.213 1041.41 412.808C1040.87 412.381 1040.61 411.699 1040.61 410.76Z" fill="#666666"/></svg>
